<svg xmlns="http://www.w3.org/2000/svg"  viewBox="0 0 32 32" width="20px" height="20px" baseProfile="basic"><radialGradient id="FBuol9Qptgpq4Ciu6aqyFa" cx="242.011" cy="49.827" r=".028" gradientTransform="matrix(128.602 652.9562 653.274 -128.6646 -63653.82 -151597.453)" gradientUnits="userSpaceOnUse"><stop offset="0" stop-color="#1ba1e3"/><stop offset="0" stop-color="#1ba1e3"/><stop offset=".3" stop-color="#5489d6"/><stop offset=".545" stop-color="#9b72cb"/><stop offset=".825" stop-color="#d96570"/><stop offset="1" stop-color="#f49c46"/></radialGradient><path fill="url(#FBuol9Qptgpq4Ciu6aqyFa)" d="M15.304,21.177l-1.203,2.756c-0.463,1.06-1.929,1.06-2.391,0l-1.203-2.756	c-1.071-2.453-2.999-4.406-5.403-5.473l-3.313-1.47c-1.053-0.467-1.053-2,0-2.467l3.209-1.424c2.466-1.095,4.429-3.12,5.481-5.656	L11.7,1.748c0.452-1.09,1.959-1.09,2.411,0l1.219,2.938c1.053,2.537,3.015,4.562,5.481,5.656l3.209,1.424	c1.053,0.467,1.053,2,0,2.467l-3.313,1.47C18.303,16.771,16.375,18.724,15.304,21.177z"/><radialGradient id="FBuol9Qptgpq4Ciu6aqyFb" cx="242.011" cy="49.827" r=".028" gradientTransform="matrix(128.602 652.9562 653.274 -128.6646 -63653.82 -151597.453)" gradientUnits="userSpaceOnUse"><stop offset="0" stop-color="#1ba1e3"/><stop offset="0" stop-color="#1ba1e3"/><stop offset=".3" stop-color="#5489d6"/><stop offset=".545" stop-color="#9b72cb"/><stop offset=".825" stop-color="#d96570"/><stop offset="1" stop-color="#f49c46"/></radialGradient><path fill="url(#FBuol9Qptgpq4Ciu6aqyFb)" d="M26.488,29.868l-0.338,0.776	c-0.248,0.568-1.034,0.568-1.282,0l-0.338-0.776c-0.603-1.383-1.69-2.484-3.046-3.087l-1.043-0.463c-0.564-0.25-0.564-1.07,0-1.321	l0.984-0.437c1.391-0.618,2.497-1.76,3.09-3.19l0.348-0.838c0.242-0.584,1.05-0.584,1.292,0l0.348,0.838	c0.593,1.43,1.699,2.572,3.09,3.19l0.984,0.437c0.564,0.251,0.564,1.07,0,1.321l-1.043,0.463	C28.178,27.384,27.092,28.485,26.488,29.868z"/><linearGradient id="FBuol9Qptgpq4Ciu6aqyFc" x1="12.905" x2="12.905" y1=".93" y2="24.728" gradientUnits="userSpaceOnUse"><stop offset="0" stop-opacity=".02"/><stop offset="1" stop-opacity=".15"/></linearGradient><path fill="url(#FBuol9Qptgpq4Ciu6aqyFc)" d="M24.02,11.766l-3.209-1.424	c-2.466-1.095-4.429-3.12-5.481-5.656L14.11,1.748c-0.226-0.545-0.716-0.818-1.206-0.818S11.926,1.203,11.7,1.748L10.48,4.685	c-1.053,2.537-3.015,4.562-5.482,5.656L1.79,11.766c-1.053,0.467-1.053,2,0,2.467l3.313,1.47c2.405,1.067,4.332,3.02,5.403,5.473	l1.203,2.756c0.231,0.53,0.714,0.795,1.196,0.795c0.482,0,0.964-0.265,1.196-0.795l1.203-2.756c1.071-2.453,2.999-4.406,5.403-5.473	l3.313-1.47C25.073,13.766,25.073,12.234,24.02,11.766z M23.919,14.005l-3.313,1.47c-2.468,1.095-4.432,3.085-5.531,5.601	l-1.203,2.756c-0.174,0.398-0.544,0.645-0.967,0.645s-0.793-0.247-0.967-0.645l-1.203-2.756c-1.099-2.517-3.063-4.506-5.531-5.601	l-3.313-1.47C1.418,13.795,1.25,13.348,1.25,13s0.168-0.795,0.641-1.005L5.1,10.57c2.536-1.126,4.529-3.182,5.611-5.789l1.219-2.938	c0.203-0.489,0.637-0.663,0.975-0.663c0.338,0,0.772,0.174,0.975,0.663l1.219,2.938c1.082,2.607,3.075,4.663,5.611,5.789	l3.209,1.424c0.473,0.21,0.641,0.657,0.641,1.005C24.56,13.348,24.391,13.795,23.919,14.005z"/><linearGradient id="FBuol9Qptgpq4Ciu6aqyFd" x1="25.509" x2="25.509" y1="20.094" y2="31.07" gradientUnits="userSpaceOnUse"><stop offset="0" stop-opacity=".02"/><stop offset="1" stop-opacity=".15"/></linearGradient><path fill="url(#FBuol9Qptgpq4Ciu6aqyFd)" d="M30.577,24.997l-0.984-0.437	c-1.391-0.618-2.497-1.76-3.09-3.19l-0.348-0.838c-0.121-0.292-0.384-0.438-0.646-0.438c-0.262,0-0.525,0.146-0.646,0.438	l-0.348,0.838c-0.593,1.43-1.699,2.572-3.09,3.19l-0.984,0.437c-0.564,0.25-0.564,1.07,0,1.321l1.043,0.463	c1.356,0.602,2.443,1.704,3.046,3.087l0.338,0.776c0.124,0.284,0.382,0.426,0.641,0.426c0.259,0,0.517-0.142,0.641-0.426	l0.339-0.776c0.603-1.383,1.69-2.484,3.046-3.087l1.043-0.463C31.141,26.068,31.141,25.248,30.577,24.997z M30.476,26.09	l-1.043,0.463c-1.417,0.629-2.544,1.771-3.174,3.215l-0.339,0.776c-0.075,0.173-0.229,0.276-0.412,0.276	c-0.182,0-0.336-0.103-0.412-0.276l-0.339-0.776c-0.63-1.444-1.757-2.586-3.174-3.215l-1.043-0.463	c-0.172-0.076-0.274-0.238-0.274-0.432c0-0.194,0.103-0.356,0.274-0.432l0.984-0.437c1.456-0.647,2.599-1.827,3.219-3.323	l0.348-0.838c0.074-0.178,0.229-0.284,0.415-0.284c0.186,0,0.341,0.106,0.415,0.284l0.348,0.838c0.62,1.496,1.764,2.676,3.219,3.323	l0.984,0.437c0.172,0.076,0.274,0.238,0.274,0.432C30.75,25.852,30.647,26.013,30.476,26.09z"/></svg>